# xmcd
#
# Track frame offsets:
# 150
# 18185
# 36125
# 52750
# 73525
# 91477
# 108257
# 120487
# 134230
# 147950
# 160037
# 170422
# 182390
# 189345
# 197735
# 213250
# 226002
# 240405
#
# Disc length: 3386 seconds
#
#
# Revision: 2
# Processed by: cddbd v1.5.1PL0 Copyright (c) Steve Scherf et al.
# Submitted via: FreeRIP 2.90 
#
DISCID=e40d3812
DTITLE=Lightnin' Hopkins - Morning Blues - Charley Blues Masterworks Vol. 8
DYEAR=1900
DGENRE=Blues
TTITLE0=Found My Baby Crying
TTITLE1=Letter To My (Back Door Friend)
TTITLE2=Fishing Clothes
TTITLE3=Morning Blues
TTITLE4=Gambler"s Blues
TTITLE5=Wig Wearing Woman
TTITLE6=Lonesome Dog Blues
TTITLE7=Last Affair
TTITLE8=Lovin' Arms
TTITLE9=Rock Me Mama
TTITLE10=Mr. Charlie, Ptr.1
TTITLE11=Mr. Charlie, Ptr.2
TTITLE12=Play With Your Poodle
TTITLE13=You're Too Fast
TTITLE14=Love Me This Morning
TTITLE15=I'm Comin' Home
TTITLE16=Ride In Your New Automobile
TTITLE17=Breakfast Time
EXTD=
EXTT0=
EXTT1=
EXTT2=
EXTT3=
EXTT4=
EXTT5=
EXTT6=
EXTT7=
EXTT8=
EXTT9=
EXTT10=
EXTT11=
EXTT12=
EXTT13=
EXTT14=
EXTT15=
EXTT16=
EXTT17=
PLAYORDER=
